<svg width="309" height="95" viewBox="0 0 309 95" fill="none" xmlns="http://www.w3.org/2000/svg">
<rect width="95" height="95" rx="22" fill="#FF8A3D"></rect>
<path d="M68.2083 73.125L47.5 58.3333L26.7917 73.125V25.7917C26.7917 24.2225 27.415 22.7175 28.5246 21.608C29.6342 20.4984 31.1391 19.875 32.7083 19.875H62.2917C63.8609 19.875 65.3658 20.4984 66.4754 21.608C67.585 22.7175 68.2083 24.2225 68.2083 25.7917V73.125Z" stroke="#BD541A" stroke-width="7" stroke-linecap="round" stroke-linejoin="round"></path>
<path d="M135.818 67.6591C132.136 67.6591 128.977 66.9015 126.341 65.3864C123.72 63.8712 121.705 61.7652 120.295 59.0682C118.886 56.3561 118.182 53.2197 118.182 49.6591C118.182 46.0833 118.886 42.947 120.295 40.25C121.72 37.5379 123.742 35.4242 126.364 33.9091C129 32.3939 132.144 31.6364 135.795 31.6364C139.023 31.6364 141.833 32.2197 144.227 33.3864C146.636 34.553 148.515 36.2045 149.864 38.3409C151.227 40.4621 151.947 42.9545 152.023 45.8182H141.636C141.424 44.0303 140.818 42.6288 139.818 41.6136C138.833 40.5985 137.545 40.0909 135.955 40.0909C134.667 40.0909 133.538 40.4545 132.568 41.1818C131.598 41.8939 130.841 42.9545 130.295 44.3636C129.765 45.7576 129.5 47.4848 129.5 49.5455C129.5 51.6061 129.765 53.3485 130.295 54.7727C130.841 56.1818 131.598 57.25 132.568 57.9773C133.538 58.6894 134.667 59.0455 135.955 59.0455C136.985 59.0455 137.894 58.8258 138.682 58.3864C139.485 57.947 140.144 57.303 140.659 56.4545C141.174 55.5909 141.5 54.5455 141.636 53.3182H152.023C151.917 56.197 151.197 58.7121 149.864 60.8636C148.545 63.0152 146.689 64.6894 144.295 65.8864C141.917 67.0682 139.091 67.6591 135.818 67.6591ZM167.551 67.5909C165.324 67.5909 163.347 67.2197 161.619 66.4773C159.907 65.7197 158.551 64.5833 157.551 63.0682C156.566 61.5379 156.074 59.6212 156.074 57.3182C156.074 55.3788 156.415 53.7424 157.097 52.4091C157.778 51.0758 158.718 49.9924 159.915 49.1591C161.112 48.3258 162.491 47.697 164.051 47.2727C165.612 46.8333 167.278 46.5379 169.051 46.3864C171.036 46.2045 172.634 46.0152 173.847 45.8182C175.059 45.6061 175.938 45.3106 176.483 44.9318C177.044 44.5379 177.324 43.9848 177.324 43.2727V43.1591C177.324 41.9924 176.922 41.0909 176.119 40.4545C175.316 39.8182 174.233 39.5 172.869 39.5C171.4 39.5 170.218 39.8182 169.324 40.4545C168.43 41.0909 167.862 41.9697 167.619 43.0909L157.369 42.7273C157.672 40.6061 158.453 38.7121 159.71 37.0455C160.983 35.3636 162.725 34.0455 164.938 33.0909C167.165 32.1212 169.839 31.6364 172.96 31.6364C175.188 31.6364 177.241 31.9015 179.119 32.4318C180.998 32.947 182.634 33.7045 184.028 34.7045C185.422 35.6894 186.498 36.9015 187.256 38.3409C188.028 39.7803 188.415 41.4242 188.415 43.2727V67H177.96V62.1364H177.688C177.066 63.3182 176.271 64.3182 175.301 65.1364C174.347 65.9545 173.218 66.5682 171.915 66.9773C170.627 67.3864 169.172 67.5909 167.551 67.5909ZM170.983 60.3182C172.18 60.3182 173.256 60.0758 174.21 59.5909C175.18 59.1061 175.953 58.4394 176.528 57.5909C177.104 56.7273 177.392 55.7273 177.392 54.5909V51.2727C177.074 51.4394 176.688 51.5909 176.233 51.7273C175.794 51.8636 175.309 51.9924 174.778 52.1136C174.248 52.2348 173.703 52.3409 173.142 52.4318C172.581 52.5227 172.044 52.6061 171.528 52.6818C170.483 52.8485 169.589 53.1061 168.847 53.4545C168.119 53.803 167.559 54.2576 167.165 54.8182C166.786 55.3636 166.597 56.0152 166.597 56.7727C166.597 57.9242 167.006 58.803 167.824 59.4091C168.657 60.0152 169.71 60.3182 170.983 60.3182ZM195.21 67V32.0909H206.006V38.4545H206.369C207.006 36.1515 208.044 34.4394 209.483 33.3182C210.922 32.1818 212.597 31.6136 214.506 31.6136C215.021 31.6136 215.551 31.6515 216.097 31.7273C216.642 31.7879 217.15 31.8864 217.619 32.0227V41.6818C217.089 41.5 216.392 41.3561 215.528 41.25C214.68 41.1439 213.922 41.0909 213.256 41.0909C211.938 41.0909 210.748 41.3864 209.688 41.9773C208.642 42.553 207.816 43.3636 207.21 44.4091C206.619 45.4394 206.324 46.6515 206.324 48.0455V67H195.21ZM222.148 67V32.0909H232.943V38.4545H233.307C233.943 36.1515 234.981 34.4394 236.42 33.3182C237.86 32.1818 239.534 31.6136 241.443 31.6136C241.958 31.6136 242.489 31.6515 243.034 31.7273C243.58 31.7879 244.087 31.8864 244.557 32.0227V41.6818C244.027 41.5 243.33 41.3561 242.466 41.25C241.617 41.1439 240.86 41.0909 240.193 41.0909C238.875 41.0909 237.686 41.3864 236.625 41.9773C235.58 42.553 234.754 43.3636 234.148 44.4091C233.557 45.4394 233.261 46.6515 233.261 48.0455V67H222.148ZM263.568 67.6591C259.902 67.6591 256.75 66.9091 254.114 65.4091C251.492 63.8939 249.47 61.7879 248.045 59.0909C246.636 56.3788 245.932 53.2348 245.932 49.6591C245.932 46.0682 246.636 42.9242 248.045 40.2273C249.47 37.5152 251.492 35.4091 254.114 33.9091C256.75 32.3939 259.902 31.6364 263.568 31.6364C267.235 31.6364 270.379 32.3939 273 33.9091C275.636 35.4091 277.659 37.5152 279.068 40.2273C280.492 42.9242 281.205 46.0682 281.205 49.6591C281.205 53.2348 280.492 56.3788 279.068 59.0909C277.659 61.7879 275.636 63.8939 273 65.4091C270.379 66.9091 267.235 67.6591 263.568 67.6591ZM263.636 59.2727C264.97 59.2727 266.098 58.8636 267.023 58.0455C267.947 57.2273 268.652 56.0909 269.136 54.6364C269.636 53.1818 269.886 51.5 269.886 49.5909C269.886 47.6515 269.636 45.9545 269.136 44.5C268.652 43.0455 267.947 41.9091 267.023 41.0909C266.098 40.2727 264.97 39.8636 263.636 39.8636C262.258 39.8636 261.091 40.2727 260.136 41.0909C259.197 41.9091 258.477 43.0455 257.977 44.5C257.492 45.9545 257.25 47.6515 257.25 49.5909C257.25 51.5 257.492 53.1818 257.977 54.6364C258.477 56.0909 259.197 57.2273 260.136 58.0455C261.091 58.8636 262.258 59.2727 263.636 59.2727ZM306.602 32.0909V40.2727H284.58V32.0909H306.602ZM289.193 23.7273H300.307V56.0227C300.307 56.7045 300.413 57.2576 300.625 57.6818C300.852 58.0909 301.178 58.3864 301.602 58.5682C302.027 58.7348 302.534 58.8182 303.125 58.8182C303.549 58.8182 303.996 58.7803 304.466 58.7045C304.951 58.6136 305.314 58.5379 305.557 58.4773L307.239 66.5C306.708 66.6515 305.958 66.8409 304.989 67.0682C304.034 67.2955 302.89 67.4394 301.557 67.5C298.951 67.6212 296.716 67.3182 294.852 66.5909C293.004 65.8485 291.587 64.697 290.602 63.1364C289.633 61.5758 289.163 59.6136 289.193 57.25V23.7273Z" fill="#141212"></path>
</svg>
